{
  "accessors": [
    {
      "bufferView": 2,
      "componentType": 5126,
      "count": 1466,
      "max": [
        26.26177978515625,
        29.099170684814453,
        11.809306144714355
      ],
      "min": [
        -26.261743545532227,
        -0.0656333640217781,
        -13.13720703125
      ],
      "type": "VEC3"
    },
    {
      "bufferView": 2,
      "byteOffset": 17592,
      "componentType": 5126,
      "count": 1466,
      "max": [
        0.9995813369750977,
        0.9991433620452881,
        0.9989544749259949
      ],
      "min": [
        -0.9995813369750977,
        -0.9992692470550537,
        -0.9411606788635254
      ],
      "type": "VEC3"
    },
    {
      "bufferView": 3,
      "componentType": 5126,
      "count": 1466,
      "max": [
        0.9974442720413208,
        0.9998688101768494,
        0.9991433024406433,
        1.0
      ],
      "min": [
        -0.997444212436676,
        -0.9989544749259949,
        -0.9904360175132751,
        -1.0
      ],
      "type": "VEC4"
    },
    {
      "bufferView": 1,
      "componentType": 5126,
      "count": 1466,
      "max": [
        0.9960842132568359,
        0.9960649013519287
      ],
      "min": [
        0.003933646250516176,
        0.1164817214012146
      ],
      "type": "VEC2"
    },
    {
      "bufferView": 1,
      "byteOffset": 11728,
      "componentType": 5126,
      "count": 1466,
      "max": [
        0.9960842132568359,
        0.9960649013519287
      ],
      "min": [
        0.003933646250516176,
        0.1164817214012146
      ],
      "type": "VEC2"
    },
    {
      "bufferView": 0,
      "componentType": 5125,
      "count": 7182,
      "type": "SCALAR"
    }
  ],
  "asset": {
    "extras": {
      "author": "hendrikReyneke (https://sketchfab.com/hendrikReyneke)",
      "license": "CC-BY-4.0 (http://creativecommons.org/licenses/by/4.0/)",
      "source": "https://sketchfab.com/3d-models/pigeon-8cdbd8890ed84c228191cbe6241b420d",
      "title": "Pigeon"
    },
    "generator": "Sketchfab-12.68.0",
    "version": "2.0"
  },
  "bufferViews": [
    {
      "buffer": 0,
      "byteLength": 28728,
      "name": "floatBufferViews",
      "target": 34963
    },
    {
      "buffer": 0,
      "byteLength": 23456,
      "byteOffset": 28728,
      "byteStride": 8,
      "name": "floatBufferViews",
      "target": 34962
    },
    {
      "buffer": 0,
      "byteLength": 35184,
      "byteOffset": 52184,
      "byteStride": 12,
      "name": "floatBufferViews",
      "target": 34962
    },
    {
      "buffer": 0,
      "byteLength": 23456,
      "byteOffset": 87368,
      "byteStride": 16,
      "name": "floatBufferViews",
      "target": 34962
    }
  ],
  "buffers": [
    {
      "byteLength": 110824,
      "uri": "scene.bin"
    }
  ],
  "images": [
    {
      "uri": "textures/M_Pigeon_baseColor.png"
    },
    {
      "uri": "textures/M_Pigeon_normal.png"
    }
  ],
  "materials": [
    {
      "alphaMode": "MASK",
      "doubleSided": true,
      "name": "M_Pigeon",
      "normalTexture": {
        "index": 1
      },
      "pbrMetallicRoughness": {
        "baseColorTexture": {
          "index": 0
        },
        "metallicFactor": 0.0,
        "roughnessFactor": 0.552786
      }
    }
  ],
  "meshes": [
    {
      "name": "Object_0",
      "primitives": [
        {
          "attributes": {
            "NORMAL": 1,
            "POSITION": 0,
            "TANGENT": 2,
            "TEXCOORD_0": 3,
            "TEXCOORD_1": 4
          },
          "indices": 5,
          "material": 0,
          "mode": 4
        }
      ]
    }
  ],
  "nodes": [
    {
      "children": [
        1
      ],
      "matrix": [
        1.0,
        0.0,
        0.0,
        0.0,
        0.0,
        2.220446049250313e-16,
        -1.0,
        0.0,
        0.0,
        1.0,
        2.220446049250313e-16,
        0.0,
        0.0,
        0.0,
        0.0,
        1.0
      ],
      "name": "Sketchfab_model"
    },
    {
      "children": [
        2
      ],
      "name": "root"
    },
    {
      "children": [
        3
      ],
      "matrix": [
        1.0,
        0.0,
        0.0,
        0.0,
        0.0,
        2.220446049250313e-16,
        1.0,
        0.0,
        0.0,
        -1.0,
        2.220446049250313e-16,
        0.0,
        0.0,
        0.0,
        0.0,
        1.0
      ],
      "name": "GLTF_SceneRootNode"
    },
    {
      "children": [
        4
      ],
      "matrix": [
        0.009999990463256836,
        0.0,
        0.0,
        0.0,
        0.0,
        0.009999990463256836,
        0.0,
        0.0,
        0.0,
        0.0,
        0.009999990463256836,
        0.0,
        0.0,
        0.0,
        0.0,
        1.0
      ],
      "name": "SK_Pigeon_0"
    },
    {
      "mesh": 0,
      "name": "Object_4"
    }
  ],
  "samplers": [
    {
      "magFilter": 9729,
      "minFilter": 9987,
      "wrapS": 10497,
      "wrapT": 10497
    }
  ],
  "scene": 0,
  "scenes": [
    {
      "name": "Sketchfab_Scene",
      "nodes": [
        0
      ]
    }
  ],
  "textures": [
    {
      "sampler": 0,
      "source": 0
    },
    {
      "sampler": 0,
      "source": 1
    }
  ]
}
