{
  "accessors": [
    {
      "bufferView": 2,
      "componentType": 5126,
      "count": 4704,
      "max": [
        8.362006187438965,
        0.23180215060710907,
        3.6797990798950195
      ],
      "min": [
        -3.523425579071045,
        -0.20693272352218628,
        -0.15995991230010986
      ],
      "type": "VEC3"
    },
    {
      "bufferView": 2,
      "byteOffset": 56448,
      "componentType": 5126,
      "count": 4704,
      "max": [
        1.0,
        1.0,
        1.0
      ],
      "min": [
        -1.0,
        -1.0,
        -1.0
      ],
      "type": "VEC3"
    },
    {
      "bufferView": 1,
      "componentType": 5126,
      "count": 4704,
      "max": [
        1.0084556341171265,
        0.7662765979766846
      ],
      "min": [
        -0.007359994575381279,
        0.233723446726799
      ],
      "type": "VEC2"
    },
    {
      "bufferView": 0,
      "componentType": 5125,
      "count": 6468,
      "type": "SCALAR"
    },
    {
      "bufferView": 2,
      "byteOffset": 112896,
      "componentType": 5126,
      "count": 6912,
      "max": [
        8.325469017028809,
        0.2417876422405243,
        3.6797990798950195
      ],
      "min": [
        -3.5220694541931152,
        -0.2348809838294983,
        -0.15995991230010986
      ],
      "type": "VEC3"
    },
    {
      "bufferView": 2,
      "byteOffset": 195840,
      "componentType": 5126,
      "count": 6912,
      "max": [
        1.0,
        1.0,
        1.0
      ],
      "min": [
        -1.0,
        -1.0,
        -1.0
      ],
      "type": "VEC3"
    },
    {
      "bufferView": 1,
      "byteOffset": 37632,
      "componentType": 5126,
      "count": 6912,
      "max": [
        1.0084556341171265,
        0.7662765979766846
      ],
      "min": [
        -0.00735999783501029,
        0.233723446726799
      ],
      "type": "VEC2"
    },
    {
      "bufferView": 0,
      "byteOffset": 25872,
      "componentType": 5125,
      "count": 9504,
      "type": "SCALAR"
    },
    {
      "bufferView": 2,
      "byteOffset": 278784,
      "componentType": 5126,
      "count": 4128,
      "max": [
        8.358338356018066,
        0.21741290390491486,
        3.6797990798950195
      ],
      "min": [
        -3.5220694541931152,
        -0.23002681136131287,
        -0.15987980365753174
      ],
      "type": "VEC3"
    },
    {
      "bufferView": 2,
      "byteOffset": 328320,
      "componentType": 5126,
      "count": 4128,
      "max": [
        1.0,
        1.0,
        1.0
      ],
      "min": [
        -1.0,
        -1.0,
        -1.0
      ],
      "type": "VEC3"
    },
    {
      "bufferView": 1,
      "byteOffset": 92928,
      "componentType": 5126,
      "count": 4128,
      "max": [
        1.0081117153167725,
        0.7655967473983765
      ],
      "min": [
        -0.007062199991196394,
        0.23440323770046234
      ],
      "type": "VEC2"
    },
    {
      "bufferView": 0,
      "byteOffset": 63888,
      "componentType": 5125,
      "count": 5676,
      "type": "SCALAR"
    },
    {
      "bufferView": 2,
      "byteOffset": 377856,
      "componentType": 5126,
      "count": 4992,
      "max": [
        8.330117225646973,
        0.22368250787258148,
        3.6797990798950195
      ],
      "min": [
        -3.1692349910736084,
        -0.22954058647155762,
        -0.15995991230010986
      ],
      "type": "VEC3"
    },
    {
      "bufferView": 2,
      "byteOffset": 437760,
      "componentType": 5126,
      "count": 4992,
      "max": [
        0.9999985098838806,
        0.9999985098838806,
        1.0
      ],
      "min": [
        -0.9999985098838806,
        -0.9999985098838806,
        -1.0
      ],
      "type": "VEC3"
    },
    {
      "bufferView": 1,
      "byteOffset": 125952,
      "componentType": 5126,
      "count": 4992,
      "max": [
        1.0084556341171265,
        0.7662765979766846
      ],
      "min": [
        -0.007359994575381279,
        0.233723446726799
      ],
      "type": "VEC2"
    },
    {
      "bufferView": 0,
      "byteOffset": 86592,
      "componentType": 5125,
      "count": 6864,
      "type": "SCALAR"
    }
  ],
  "asset": {
    "extras": {
      "author": "NoobiePie (https://sketchfab.com/NoobiePie)",
      "license": "CC-BY-4.0 (http://creativecommons.org/licenses/by/4.0/)",
      "source": "https://sketchfab.com/3d-models/low-poly-brick-wall-8b3eb0618fb64e818a48e7713828174a",
      "title": "Low-Poly Brick Wall"
    },
    "generator": "Sketchfab-12.66.0",
    "version": "2.0"
  },
  "bufferViews": [
    {
      "buffer": 0,
      "byteLength": 114048,
      "name": "floatBufferViews",
      "target": 34963
    },
    {
      "buffer": 0,
      "byteLength": 165888,
      "byteOffset": 114048,
      "byteStride": 8,
      "name": "floatBufferViews",
      "target": 34962
    },
    {
      "buffer": 0,
      "byteLength": 497664,
      "byteOffset": 279936,
      "byteStride": 12,
      "name": "floatBufferViews",
      "target": 34962
    }
  ],
  "buffers": [
    {
      "byteLength": 777600,
      "uri": "scene.bin"
    }
  ],
  "materials": [
    {
      "doubleSided": true,
      "name": "M_Bricks_Var_3",
      "pbrMetallicRoughness": {
        "baseColorFactor": [
          0.11962991858669911,
          0.014582185755191046,
          0.006872963603463315,
          1.0
        ],
        "metallicFactor": 0.0
      }
    },
    {
      "doubleSided": true,
      "name": "M_Bricks_Var_2",
      "pbrMetallicRoughness": {
        "baseColorFactor": [
          0.14430706441529761,
          0.02827759981179258,
          0.019394302249745872,
          1.0
        ],
        "metallicFactor": 0.0
      }
    },
    {
      "doubleSided": true,
      "name": "M_Bricks_Var_1",
      "pbrMetallicRoughness": {
        "baseColorFactor": [
          0.133808,
          0.0279845,
          0.00515327,
          1.0
        ],
        "metallicFactor": 0.0
      }
    },
    {
      "doubleSided": true,
      "name": "M_Bricks_Var_4",
      "pbrMetallicRoughness": {
        "baseColorFactor": [
          0.09083709999999998,
          0.028284599999999986,
          0.006958949999999999,
          1.0
        ],
        "metallicFactor": 0.0
      }
    }
  ],
  "meshes": [
    {
      "name": "Cube_M_Bricks_Var_3_0",
      "primitives": [
        {
          "attributes": {
            "NORMAL": 1,
            "POSITION": 0,
            "TEXCOORD_0": 2
          },
          "indices": 3,
          "material": 0,
          "mode": 4
        }
      ]
    },
    {
      "name": "Cube_M_Bricks_Var_2_0",
      "primitives": [
        {
          "attributes": {
            "NORMAL": 5,
            "POSITION": 4,
            "TEXCOORD_0": 6
          },
          "indices": 7,
          "material": 1,
          "mode": 4
        }
      ]
    },
    {
      "name": "Cube_M_Bricks_Var_1_0",
      "primitives": [
        {
          "attributes": {
            "NORMAL": 9,
            "POSITION": 8,
            "TEXCOORD_0": 10
          },
          "indices": 11,
          "material": 2,
          "mode": 4
        }
      ]
    },
    {
      "name": "Cube_M_Bricks_Var_4_0",
      "primitives": [
        {
          "attributes": {
            "NORMAL": 13,
            "POSITION": 12,
            "TEXCOORD_0": 14
          },
          "indices": 15,
          "material": 3,
          "mode": 4
        }
      ]
    }
  ],
  "nodes": [
    {
      "children": [
        1
      ],
      "matrix": [
        0.4937690198421478,
        0.0,
        0.0,
        0.0,
        0.0,
        1.0963874693506966e-16,
        -0.4937690198421478,
        0.0,
        0.0,
        0.4937690198421478,
        1.0963874693506966e-16,
        0.0,
        0.0,
        0.0,
        0.0,
        1.0
      ],
      "name": "Sketchfab_model"
    },
    {
      "children": [
        2
      ],
      "matrix": [
        0.009999999776482582,
        0.0,
        0.0,
        0.0,
        0.0,
        0.0,
        0.009999999776482582,
        0.0,
        0.0,
        -0.009999999776482582,
        0.0,
        0.0,
        0.0,
        0.0,
        0.0,
        1.0
      ],
      "name": "17176c989a89434aae6d8b86322b6715.fbx"
    },
    {
      "children": [
        3
      ],
      "name": "RootNode"
    },
    {
      "children": [
        4,
        5,
        6,
        7
      ],
      "matrix": [
        100.0,
        0.0,
        0.0,
        0.0,
        0.0,
        -1.629206793918314e-05,
        -99.99999999999868,
        0.0,
        0.0,
        99.99999999999868,
        -1.629206793918314e-05,
        0.0,
        46.92158508300781,
        15.995990753173828,
        0.24809110164642334,
        1.0
      ],
      "name": "Cube"
    },
    {
      "mesh": 0,
      "name": "Cube_M_Bricks_Var_3_0"
    },
    {
      "mesh": 1,
      "name": "Cube_M_Bricks_Var_2_0"
    },
    {
      "mesh": 2,
      "name": "Cube_M_Bricks_Var_1_0"
    },
    {
      "mesh": 3,
      "name": "Cube_M_Bricks_Var_4_0"
    }
  ],
  "scene": 0,
  "scenes": [
    {
      "name": "Sketchfab_Scene",
      "nodes": [
        0
      ]
    }
  ]
}
