{
  "accessors": [
    {
      "bufferView": 2,
      "componentType": 5126,
      "count": 1444,
      "max": [
        0.17701856791973114,
        0.0781816765666008,
        0.1255102902650833
      ],
      "min": [
        -0.18141807615756989,
        -0.04034612327814102,
        -0.11215481907129288
      ],
      "type": "VEC3"
    },
    {
      "bufferView": 2,
      "byteOffset": 17328,
      "componentType": 5126,
      "count": 1444,
      "max": [
        0.9889631271362305,
        0.9999921321868896,
        0.9992959499359131
      ],
      "min": [
        -0.9897117614746094,
        -0.9997953176498413,
        -0.999620795249939
      ],
      "type": "VEC3"
    },
    {
      "bufferView": 1,
      "componentType": 5126,
      "count": 1444,
      "max": [
        0.8632166981697083,
        0.9949649572372437
      ],
      "min": [
        0.07814808189868927,
        0.01954149827361107
      ],
      "type": "VEC2"
    },
    {
      "bufferView": 0,
      "componentType": 5125,
      "count": 7956,
      "type": "SCALAR"
    }
  ],
  "asset": {
    "extras": {
      "author": "Valo Niskanen (https://sketchfab.com/Valo.Niskanen)",
      "license": "CC-BY-NC-4.0 (http://creativecommons.org/licenses/by-nc/4.0/)",
      "source": "https://sketchfab.com/3d-models/folded-newspaper-8f2a04cbcf3741088978399924b46a92",
      "title": "Folded Newspaper"
    },
    "generator": "Sketchfab-12.67.0",
    "version": "2.0"
  },
  "bufferViews": [
    {
      "buffer": 0,
      "byteLength": 31824,
      "name": "floatBufferViews",
      "target": 34963
    },
    {
      "buffer": 0,
      "byteLength": 11552,
      "byteOffset": 31824,
      "byteStride": 8,
      "name": "floatBufferViews",
      "target": 34962
    },
    {
      "buffer": 0,
      "byteLength": 34656,
      "byteOffset": 43376,
      "byteStride": 12,
      "name": "floatBufferViews",
      "target": 34962
    }
  ],
  "buffers": [
    {
      "byteLength": 78032,
      "uri": "scene.bin"
    }
  ],
  "images": [
    {
      "uri": "textures/Material.001_baseColor.png"
    }
  ],
  "materials": [
    {
      "doubleSided": true,
      "name": "Material.001",
      "pbrMetallicRoughness": {
        "baseColorTexture": {
          "index": 0
        },
        "metallicFactor": 0.0
      }
    }
  ],
  "meshes": [
    {
      "name": "Object_0",
      "primitives": [
        {
          "attributes": {
            "NORMAL": 1,
            "POSITION": 0,
            "TEXCOORD_0": 2
          },
          "indices": 3,
          "material": 0,
          "mode": 4
        }
      ]
    }
  ],
  "nodes": [
    {
      "children": [
        1
      ],
      "matrix": [
        0.9999938607215881,
        0.00348756299354136,
        0.0002644731721375145,
        0.0,
        -0.0004760938754770905,
        0.21064282953739188,
        -0.9775629639625549,
        0.0,
        -0.003465021960437298,
        0.9775568842887878,
        0.21064320206642173,
        0.0,
        6.235812907107174e-05,
        0.0018388039898127326,
        -0.0038345074281096454,
        1.0
      ],
      "name": "Sketchfab_model"
    },
    {
      "children": [
        2
      ],
      "name": "root"
    },
    {
      "children": [
        3
      ],
      "matrix": [
        1.0,
        0.0,
        0.0,
        0.0,
        0.0,
        2.220446049250313e-16,
        1.0,
        0.0,
        0.0,
        -1.0,
        2.220446049250313e-16,
        0.0,
        0.0,
        0.0,
        0.0,
        1.0
      ],
      "name": "GLTF_SceneRootNode"
    },
    {
      "children": [
        4
      ],
      "name": "Plane_0"
    },
    {
      "mesh": 0,
      "name": "Object_4"
    }
  ],
  "samplers": [
    {
      "magFilter": 9729,
      "minFilter": 9987,
      "wrapS": 10497,
      "wrapT": 10497
    }
  ],
  "scene": 0,
  "scenes": [
    {
      "name": "Sketchfab_Scene",
      "nodes": [
        0
      ]
    }
  ],
  "textures": [
    {
      "sampler": 0,
      "source": 0
    }
  ]
}
