{
  "accessors": [
    {
      "bufferView": 2,
      "componentType": 5126,
      "count": 700,
      "max": [
        7.044994354248047,
        9.318550109863281,
        14.75478458404541
      ],
      "min": [
        -7.068824768066406,
        -9.532503128051758,
        0.27768027782440186
      ],
      "type": "VEC3"
    },
    {
      "bufferView": 2,
      "byteOffset": 8400,
      "componentType": 5126,
      "count": 700,
      "max": [
        1.0,
        1.0,
        1.0
      ],
      "min": [
        -1.0,
        -1.0,
        -1.0
      ],
      "type": "VEC3"
    },
    {
      "bufferView": 3,
      "componentType": 5126,
      "count": 700,
      "max": [
        0.9999799132347107,
        1.0,
        1.0,
        1.0
      ],
      "min": [
        -1.0,
        -1.0,
        -0.7071256041526794,
        1.0
      ],
      "type": "VEC4"
    },
    {
      "bufferView": 1,
      "componentType": 5126,
      "count": 700,
      "max": [
        0.9959338307380676,
        0.9975601434707642
      ],
      "min": [
        0.6672289967536926,
        0.0008444786071777344
      ],
      "type": "VEC2"
    },
    {
      "bufferView": 0,
      "componentType": 5125,
      "count": 1440,
      "type": "SCALAR"
    },
    {
      "bufferView": 2,
      "byteOffset": 16800,
      "componentType": 5126,
      "count": 282,
      "max": [
        7.283464431762695,
        9.251968383789063,
        15.4847993850708
      ],
      "min": [
        -7.283464431762695,
        -9.251968383789063,
        15.241351127624512
      ],
      "type": "VEC3"
    },
    {
      "bufferView": 2,
      "byteOffset": 20184,
      "componentType": 5126,
      "count": 282,
      "max": [
        1.0,
        1.0,
        1.0
      ],
      "min": [
        -1.0,
        -1.0,
        -1.0
      ],
      "type": "VEC3"
    },
    {
      "bufferView": 3,
      "byteOffset": 11200,
      "componentType": 5126,
      "count": 282,
      "max": [
        1.0,
        1.0,
        1.0,
        1.0
      ],
      "min": [
        -0.7071279287338257,
        -0.9996080994606018,
        -1.0,
        -1.0
      ],
      "type": "VEC4"
    },
    {
      "bufferView": 1,
      "byteOffset": 5600,
      "componentType": 5126,
      "count": 282,
      "max": [
        1.3368043899536133,
        0.9971663951873779
      ],
      "min": [
        0.0032301312312483788,
        0.00024872354697436094
      ],
      "type": "VEC2"
    },
    {
      "bufferView": 0,
      "byteOffset": 5760,
      "componentType": 5125,
      "count": 528,
      "type": "SCALAR"
    },
    {
      "bufferView": 2,
      "byteOffset": 23568,
      "componentType": 5126,
      "count": 24,
      "max": [
        -7.239595413208008,
        -7.069010257720947,
        12.882972717285156
      ],
      "min": [
        -7.384864330291748,
        -21.739253997802734,
        2.488708972930908
      ],
      "type": "VEC3"
    },
    {
      "bufferView": 2,
      "byteOffset": 23856,
      "componentType": 5126,
      "count": 24,
      "max": [
        1.0,
        1.0,
        1.0
      ],
      "min": [
        -1.0,
        -1.0,
        -1.0
      ],
      "type": "VEC3"
    },
    {
      "bufferView": 3,
      "byteOffset": 15712,
      "componentType": 5126,
      "count": 24,
      "max": [
        1.0,
        0.0,
        1.1778079311852707e-07,
        1.0
      ],
      "min": [
        3.250370284035853e-08,
        -1.0,
        -8.527710093630958e-08,
        1.0
      ],
      "type": "VEC4"
    },
    {
      "bufferView": 1,
      "byteOffset": 7856,
      "componentType": 5126,
      "count": 24,
      "max": [
        1.783614993095398,
        0.9953301548957825
      ],
      "min": [
        0.00865991972386837,
        0.004876318387687206
      ],
      "type": "VEC2"
    },
    {
      "bufferView": 0,
      "byteOffset": 7872,
      "componentType": 5125,
      "count": 36,
      "type": "SCALAR"
    },
    {
      "bufferView": 2,
      "byteOffset": 24144,
      "componentType": 5126,
      "count": 20,
      "max": [
        7.073405742645264,
        9.06454086303711,
        15.287520408630371
      ],
      "min": [
        -7.044395446777344,
        -9.058838844299316,
        15.096652030944824
      ],
      "type": "VEC3"
    },
    {
      "bufferView": 2,
      "byteOffset": 24384,
      "componentType": 5126,
      "count": 20,
      "max": [
        1.0,
        1.0,
        1.0
      ],
      "min": [
        -1.0,
        -1.0,
        -2.498319872756838e-06
      ],
      "type": "VEC3"
    },
    {
      "bufferView": 3,
      "byteOffset": 16096,
      "componentType": 5126,
      "count": 20,
      "max": [
        1.0,
        -2.364291447065625e-07,
        1.0524247073817605e-07,
        1.0
      ],
      "min": [
        -1.0,
        -1.0,
        -4.4009118482790655e-07,
        1.0
      ],
      "type": "VEC4"
    },
    {
      "bufferView": 1,
      "byteOffset": 8048,
      "componentType": 5126,
      "count": 20,
      "max": [
        0.9962586760520935,
        0.926971435546875
      ],
      "min": [
        0.364347904920578,
        0.006281367503106594
      ],
      "type": "VEC2"
    },
    {
      "bufferView": 0,
      "byteOffset": 8016,
      "componentType": 5125,
      "count": 30,
      "type": "SCALAR"
    },
    {
      "bufferView": 2,
      "byteOffset": 24624,
      "componentType": 5126,
      "count": 40,
      "max": [
        7.0457916259765625,
        9.126179695129395,
        14.547552108764648
      ],
      "min": [
        -6.9495697021484375,
        -9.333821296691895,
        0.30729103088378906
      ],
      "type": "VEC3"
    },
    {
      "bufferView": 2,
      "byteOffset": 25104,
      "componentType": 5126,
      "count": 40,
      "max": [
        1.0,
        1.0,
        1.0
      ],
      "min": [
        -1.0,
        -1.0,
        -1.0
      ],
      "type": "VEC3"
    },
    {
      "bufferView": 3,
      "byteOffset": 16416,
      "componentType": 5126,
      "count": 40,
      "max": [
        1.0,
        9.21767878026003e-07,
        4.103839046365465e-07,
        1.0
      ],
      "min": [
        -1.0,
        -3.981211875725421e-07,
        -1.0,
        1.0
      ],
      "type": "VEC4"
    },
    {
      "bufferView": 1,
      "byteOffset": 8208,
      "componentType": 5126,
      "count": 40,
      "max": [
        0.6607775688171387,
        0.9922221899032593
      ],
      "min": [
        0.0077030835673213005,
        0.29928940534591675
      ],
      "type": "VEC2"
    },
    {
      "bufferView": 0,
      "byteOffset": 8136,
      "componentType": 5125,
      "count": 60,
      "type": "SCALAR"
    },
    {
      "bufferView": 2,
      "byteOffset": 25584,
      "componentType": 5126,
      "count": 832,
      "max": [
        7.292135238647461,
        9.403325080871582,
        14.731544494628906
      ],
      "min": [
        -7.331965923309326,
        -9.403324127197266,
        0.27000582218170166
      ],
      "type": "VEC3"
    },
    {
      "bufferView": 2,
      "byteOffset": 35568,
      "componentType": 5126,
      "count": 832,
      "max": [
        1.0,
        1.0,
        1.0
      ],
      "min": [
        -1.0,
        -1.0,
        -1.0
      ],
      "type": "VEC3"
    },
    {
      "bufferView": 3,
      "byteOffset": 17056,
      "componentType": 5126,
      "count": 832,
      "max": [
        1.0,
        1.0,
        0.7071285247802734,
        1.0
      ],
      "min": [
        -1.0,
        -1.0,
        -1.0,
        1.0
      ],
      "type": "VEC4"
    },
    {
      "bufferView": 1,
      "byteOffset": 8528,
      "componentType": 5126,
      "count": 832,
      "max": [
        1.9988089799880981,
        0.9756876826286316
      ],
      "min": [
        0.6507606506347656,
        0.0013377033174037933
      ],
      "type": "VEC2"
    },
    {
      "bufferView": 0,
      "byteOffset": 8376,
      "componentType": 5125,
      "count": 1824,
      "type": "SCALAR"
    },
    {
      "bufferView": 2,
      "byteOffset": 45552,
      "componentType": 5126,
      "count": 40,
      "max": [
        7.04075813293457,
        9.11876106262207,
        14.587553977966309
      ],
      "min": [
        -7.089324474334717,
        -9.090418815612793,
        0.4925670623779297
      ],
      "type": "VEC3"
    },
    {
      "bufferView": 2,
      "byteOffset": 46032,
      "componentType": 5126,
      "count": 40,
      "max": [
        1.0,
        1.0,
        1.0
      ],
      "min": [
        -1.0,
        -1.0,
        -1.0
      ],
      "type": "VEC3"
    },
    {
      "bufferView": 3,
      "byteOffset": 30368,
      "componentType": 5126,
      "count": 40,
      "max": [
        4.776532591677096e-07,
        1.0,
        1.0,
        1.0
      ],
      "min": [
        -6.351286288008851e-07,
        -1.0,
        -1.0,
        1.0
      ],
      "type": "VEC4"
    },
    {
      "bufferView": 1,
      "byteOffset": 15184,
      "componentType": 5126,
      "count": 40,
      "max": [
        1.64621901512146,
        0.8553622364997864
      ],
      "min": [
        0.004486680030822754,
        0.005366295110434294
      ],
      "type": "VEC2"
    },
    {
      "bufferView": 0,
      "byteOffset": 15672,
      "componentType": 5125,
      "count": 60,
      "type": "SCALAR"
    }
  ],
  "asset": {
    "extras": {
      "author": "DZs (https://sketchfab.com/DZs)",
      "license": "CC-BY-4.0 (http://creativecommons.org/licenses/by/4.0/)",
      "source": "https://sketchfab.com/3d-models/wood-box-e77ad5f736e24e049ca69341a302b3a2",
      "title": "wood box"
    },
    "generator": "Sketchfab-12.67.0",
    "version": "2.0"
  },
  "bufferViews": [
    {
      "buffer": 0,
      "byteLength": 15912,
      "name": "floatBufferViews",
      "target": 34963
    },
    {
      "buffer": 0,
      "byteLength": 15504,
      "byteOffset": 15912,
      "byteStride": 8,
      "name": "floatBufferViews",
      "target": 34962
    },
    {
      "buffer": 0,
      "byteLength": 46512,
      "byteOffset": 31416,
      "byteStride": 12,
      "name": "floatBufferViews",
      "target": 34962
    },
    {
      "buffer": 0,
      "byteLength": 31008,
      "byteOffset": 77928,
      "byteStride": 16,
      "name": "floatBufferViews",
      "target": 34962
    }
  ],
  "buffers": [
    {
      "byteLength": 108936,
      "uri": "scene.bin"
    }
  ],
  "images": [
    {
      "uri": "textures/lr_box_baseColor.png"
    },
    {
      "uri": "textures/lr_box_metallicRoughness.png"
    },
    {
      "uri": "textures/lr_box_normal.png"
    },
    {
      "uri": "textures/t_box_baseColor.png"
    },
    {
      "uri": "textures/t_box_metallicRoughness.png"
    },
    {
      "uri": "textures/t_box_normal.png"
    },
    {
      "uri": "textures/b_box_baseColor.png"
    },
    {
      "uri": "textures/b_box_metallicRoughness.png"
    },
    {
      "uri": "textures/b_box_normal.png"
    },
    {
      "uri": "textures/fb_box_baseColor.png"
    },
    {
      "uri": "textures/fb_box_metallicRoughness.png"
    },
    {
      "uri": "textures/fb_box_normal.png"
    }
  ],
  "materials": [
    {
      "doubleSided": true,
      "name": "lr_box",
      "normalTexture": {
        "index": 2
      },
      "occlusionTexture": {
        "index": 1
      },
      "pbrMetallicRoughness": {
        "baseColorTexture": {
          "index": 0
        },
        "metallicRoughnessTexture": {
          "index": 1
        }
      }
    },
    {
      "doubleSided": true,
      "name": "t_box",
      "normalTexture": {
        "index": 5
      },
      "occlusionTexture": {
        "index": 4
      },
      "pbrMetallicRoughness": {
        "baseColorTexture": {
          "index": 3
        },
        "metallicRoughnessTexture": {
          "index": 4
        }
      }
    },
    {
      "doubleSided": true,
      "name": "b_box",
      "normalTexture": {
        "index": 8
      },
      "occlusionTexture": {
        "index": 7
      },
      "pbrMetallicRoughness": {
        "baseColorTexture": {
          "index": 6
        },
        "metallicRoughnessTexture": {
          "index": 7
        }
      }
    },
    {
      "doubleSided": true,
      "name": "fb_box",
      "normalTexture": {
        "index": 11
      },
      "occlusionTexture": {
        "index": 10
      },
      "pbrMetallicRoughness": {
        "baseColorTexture": {
          "index": 9
        },
        "metallicRoughnessTexture": {
          "index": 10
        }
      }
    }
  ],
  "meshes": [
    {
      "name": "lr_box1_lp_lr_box_0",
      "primitives": [
        {
          "attributes": {
            "NORMAL": 1,
            "POSITION": 0,
            "TANGENT": 2,
            "TEXCOORD_0": 3
          },
          "indices": 4,
          "material": 0,
          "mode": 4
        }
      ]
    },
    {
      "name": "t_box1_lp_t_box_0",
      "primitives": [
        {
          "attributes": {
            "NORMAL": 6,
            "POSITION": 5,
            "TANGENT": 7,
            "TEXCOORD_0": 8
          },
          "indices": 9,
          "material": 1,
          "mode": 4
        }
      ]
    },
    {
      "name": "b_box_lp_b_box_0",
      "primitives": [
        {
          "attributes": {
            "NORMAL": 11,
            "POSITION": 10,
            "TANGENT": 12,
            "TEXCOORD_0": 13
          },
          "indices": 14,
          "material": 2,
          "mode": 4
        }
      ]
    },
    {
      "name": "t_box2_lp_t_box_0",
      "primitives": [
        {
          "attributes": {
            "NORMAL": 16,
            "POSITION": 15,
            "TANGENT": 17,
            "TEXCOORD_0": 18
          },
          "indices": 19,
          "material": 1,
          "mode": 4
        }
      ]
    },
    {
      "name": "lr_box2_lp_lr_box_0",
      "primitives": [
        {
          "attributes": {
            "NORMAL": 21,
            "POSITION": 20,
            "TANGENT": 22,
            "TEXCOORD_0": 23
          },
          "indices": 24,
          "material": 0,
          "mode": 4
        }
      ]
    },
    {
      "name": "fb_box1_lp_fb_box_0",
      "primitives": [
        {
          "attributes": {
            "NORMAL": 26,
            "POSITION": 25,
            "TANGENT": 27,
            "TEXCOORD_0": 28
          },
          "indices": 29,
          "material": 3,
          "mode": 4
        }
      ]
    },
    {
      "name": "fb_box2_lp_fb_box_0",
      "primitives": [
        {
          "attributes": {
            "NORMAL": 31,
            "POSITION": 30,
            "TANGENT": 32,
            "TEXCOORD_0": 33
          },
          "indices": 34,
          "material": 3,
          "mode": 4
        }
      ]
    }
  ],
  "nodes": [
    {
      "children": [
        1
      ],
      "matrix": [
        0.062395572662353516,
        0.0,
        0.0,
        0.0,
        0.0,
        1.385460028088337e-17,
        -0.062395572662353516,
        0.0,
        0.0,
        0.062395572662353516,
        1.385460028088337e-17,
        0.0,
        0.0,
        0.0,
        0.0,
        1.0
      ],
      "name": "Sketchfab_model"
    },
    {
      "children": [
        2
      ],
      "matrix": [
        1.0,
        0.0,
        0.0,
        0.0,
        0.0,
        0.0,
        1.0,
        0.0,
        0.0,
        -1.0,
        0.0,
        0.0,
        0.0,
        0.0,
        0.0,
        1.0
      ],
      "name": "box_lp.FBX"
    },
    {
      "children": [
        3,
        6,
        9,
        12,
        15,
        18,
        21
      ],
      "name": "RootNode"
    },
    {
      "children": [
        4
      ],
      "matrix": [
        1.0,
        0.0,
        0.0,
        0.0,
        0.0,
        2.220446049250313e-16,
        -1.0,
        0.0,
        0.0,
        1.0,
        2.220446049250313e-16,
        0.0,
        -48.36259460449219,
        11.24710464477539,
        7.528219223022461,
        1.0
      ],
      "name": "lr_box1_lp"
    },
    {
      "children": [
        5
      ],
      "matrix": [
        1.0,
        0.0,
        -0.0,
        0.0,
        0.0,
        1.0,
        0.0,
        0.0,
        0.0,
        0.0,
        1.0,
        0.0,
        -0.04679107666015625,
        -9.189180374145508,
        -7.499179840087891,
        1.0
      ],
      "name": "Object_4"
    },
    {
      "mesh": 0,
      "name": "lr_box1_lp_lr_box_0"
    },
    {
      "children": [
        7
      ],
      "matrix": [
        1.0,
        0.0,
        0.0,
        0.0,
        0.0,
        2.220446049250313e-16,
        -1.0,
        0.0,
        0.0,
        1.0,
        2.220446049250313e-16,
        0.0,
        -48.409385681152344,
        18.58855438232422,
        16.834617614746094,
        1.0
      ],
      "name": "t_box1_lp"
    },
    {
      "children": [
        8
      ],
      "matrix": [
        1.0,
        0.0,
        -0.0,
        0.0,
        0.0,
        1.0,
        0.0,
        0.0,
        0.0,
        0.0,
        1.0,
        0.0,
        0.0,
        0.0,
        -15.364824295043945,
        1.0
      ],
      "name": "Object_7"
    },
    {
      "mesh": 1,
      "name": "t_box1_lp_t_box_0"
    },
    {
      "children": [
        10
      ],
      "matrix": [
        6.635549734376011e-08,
        1.5180368423461899,
        9.29529520543795e-17,
        0.0,
        0.9918382763862591,
        -4.335462757630407e-08,
        4.335462857869856e-08,
        0.0,
        7.82053924108111e-08,
        -3.3089135693274185e-15,
        -1.789130806922911,
        0.0,
        -48.46198654174805,
        3.9140617847442627,
        16.820446014404297,
        1.0
      ],
      "name": "b_box_lp"
    },
    {
      "children": [
        11
      ],
      "matrix": [
        1.0,
        0.0,
        -0.0,
        0.0,
        0.0,
        1.0,
        0.0,
        0.0,
        0.0,
        0.0,
        1.0,
        0.0,
        7.3119120597839355,
        14.404274940490723,
        -7.685842514038086,
        1.0
      ],
      "name": "Object_10"
    },
    {
      "mesh": 2,
      "name": "b_box_lp_b_box_0"
    },
    {
      "children": [
        13
      ],
      "matrix": [
        1.0,
        0.0,
        0.0,
        0.0,
        0.0,
        2.220446049250313e-16,
        -1.0,
        0.0,
        0.0,
        1.0,
        2.220446049250313e-16,
        0.0,
        -48.409385681152344,
        18.58855438232422,
        16.834617614746094,
        1.0
      ],
      "name": "t_box2_lp"
    },
    {
      "children": [
        14
      ],
      "matrix": [
        1.0,
        0.0,
        -0.0,
        0.0,
        0.0,
        1.0,
        0.0,
        0.0,
        0.0,
        0.0,
        1.0,
        0.0,
        0.0,
        0.0,
        -15.364824295043945,
        1.0
      ],
      "name": "Object_13"
    },
    {
      "mesh": 3,
      "name": "t_box2_lp_t_box_0"
    },
    {
      "children": [
        16
      ],
      "matrix": [
        1.0,
        0.0,
        0.0,
        0.0,
        0.0,
        2.220446049250313e-16,
        -1.0,
        0.0,
        0.0,
        1.0,
        2.220446049250313e-16,
        0.0,
        -48.36259460449219,
        11.24710464477539,
        7.528219223022461,
        1.0
      ],
      "name": "lr_box2_lp"
    },
    {
      "children": [
        17
      ],
      "matrix": [
        1.0,
        0.0,
        -0.0,
        0.0,
        0.0,
        1.0,
        0.0,
        0.0,
        0.0,
        0.0,
        1.0,
        0.0,
        -0.04679107666015625,
        -9.189180374145508,
        -7.499179840087891,
        1.0
      ],
      "name": "Object_16"
    },
    {
      "mesh": 4,
      "name": "lr_box2_lp_lr_box_0"
    },
    {
      "children": [
        19
      ],
      "matrix": [
        1.0,
        0.0,
        0.0,
        0.0,
        0.0,
        2.220446049250313e-16,
        -1.0,
        0.0,
        0.0,
        1.0,
        2.220446049250313e-16,
        0.0,
        -55.6087532043457,
        11.24710464477539,
        16.834617614746094,
        1.0
      ],
      "name": "fb_box1_lp"
    },
    {
      "children": [
        20
      ],
      "matrix": [
        1.0,
        0.0,
        -0.0,
        0.0,
        0.0,
        1.0,
        0.0,
        0.0,
        0.0,
        0.0,
        1.0,
        0.0,
        7.200374603271484,
        0.0,
        -7.499179840087891,
        1.0
      ],
      "name": "Object_19"
    },
    {
      "mesh": 5,
      "name": "fb_box1_lp_fb_box_0"
    },
    {
      "children": [
        22
      ],
      "matrix": [
        1.0,
        0.0,
        0.0,
        0.0,
        0.0,
        2.220446049250313e-16,
        -1.0,
        0.0,
        0.0,
        1.0,
        2.220446049250313e-16,
        0.0,
        -55.6087532043457,
        11.24710464477539,
        16.834617614746094,
        1.0
      ],
      "name": "fb_box2_lp"
    },
    {
      "children": [
        23
      ],
      "matrix": [
        1.0,
        0.0,
        -0.0,
        0.0,
        0.0,
        1.0,
        0.0,
        0.0,
        0.0,
        0.0,
        1.0,
        0.0,
        7.200374603271484,
        0.0,
        -7.499179840087891,
        1.0
      ],
      "name": "Object_22"
    },
    {
      "mesh": 6,
      "name": "fb_box2_lp_fb_box_0"
    }
  ],
  "samplers": [
    {
      "magFilter": 9729,
      "minFilter": 9987,
      "wrapS": 10497,
      "wrapT": 10497
    }
  ],
  "scene": 0,
  "scenes": [
    {
      "name": "Sketchfab_Scene",
      "nodes": [
        0
      ]
    }
  ],
  "textures": [
    {
      "sampler": 0,
      "source": 0
    },
    {
      "sampler": 0,
      "source": 1
    },
    {
      "sampler": 0,
      "source": 2
    },
    {
      "sampler": 0,
      "source": 3
    },
    {
      "sampler": 0,
      "source": 4
    },
    {
      "sampler": 0,
      "source": 5
    },
    {
      "sampler": 0,
      "source": 6
    },
    {
      "sampler": 0,
      "source": 7
    },
    {
      "sampler": 0,
      "source": 8
    },
    {
      "sampler": 0,
      "source": 9
    },
    {
      "sampler": 0,
      "source": 10
    },
    {
      "sampler": 0,
      "source": 11
    }
  ]
}
